<?xml version="1.0" encoding="UTF-8" standalone="no"?>
<svg id="svg4550" xmlns:rdf="http://www.w3.org/1999/02/22-rdf-syntax-ns#" xmlns="http://www.w3.org/2000/svg" height="1196" viewBox="0 0 1273 1196" width="1273" version="1.1" xmlns:cc="http://creativecommons.org/ns#" xmlns:dc="http://purl.org/dc/elements/1.1/">
<path id="path4560" d="m626 1189.4c-3.025-0.1967-15.85-0.8381-28.5-1.4253-40.321-1.8716-78.359-4.846-102.5-8.0151-16.215-2.1286-36.747-5.1042-41.5-6.0143-2.75-0.5266-8.825-1.6647-13.5-2.529-58.392-10.796-128.18-38.914-184.5-74.337-55.55-34.9-107.11-81.7-142.99-129.73-4.87-6.53-10.05-13.45-11.51-15.37-5.282-6.99-11.459-16.7-23.226-36.5-65.584-110.38-88.033-269.54-59.804-424 17.356-94.96 38.164-150.96 79.887-215 6.2684-9.6207 30.907-41.906 36.351-47.633 0.71483-0.75195 5.6281-6.3172 10.918-12.367 17.161-19.625 48.621-49.137 71.351-66.932 2.7624-2.1626 5.2475-4.2104 5.5225-4.5507 0.65201-0.80677 14.42-11.206 22.873-17.277 14.605-10.489 44.156-29.726 57.627-37.516 3.3-1.9082 7.575-4.3826 9.5-5.4987 45.827-26.57 91.946-45.418 144-58.851 11.657-3.0082 13.236-3.3677 27.5-6.2608 82.59-16.748 203.17-17.397 293.5-1.575 3.025 0.52985 7.7939 1.3759 10.598 1.88 55.218 9.9293 140.83 38.61 177.4 59.43 1.925 1.0959 5.6689 3.058 8.3197 4.3601 68.28 33.555 140.88 93.875 185.78 154.3 10.3 13.96 32.9 48.54 32.9 50.42 0 0.20416 1.7225 3.2297 3.8277 6.7234 19.482 32.33 44.401 95.39 53.685 135.85 18.825 82.047 21.576 150 9.5074 234.88-7.1648 50.394-24.358 114.51-44.549 166.12-2.9046 7.425-6.9326 17.739-8.9513 22.921-22.786 58.489-73.85 128.01-129.82 176.74-6.1614 5.3646-11.428 10.026-11.703 10.36-3.9279 4.7595-44.126 34.786-64.688 48.321-68.667 45.197-137.72 73.572-214.51 88.144-42.592 8.0829-120.36 13.441-158.8 10.94zm39-31.452c39.987-1.7374 79.858-6.274 114.5-13.028 18.866-3.6781 21.026-4.1386 33-7.0345 14.954-3.6167 25.246-6.3739 33-8.8402 3.3-1.0496 9.375-2.9052 13.5-4.1234s10.2-3.2434 13.5-4.5005c26.001-9.9045 34.008-13.165 48.5-19.751 17.934-8.1503 22.169-10.304 41-20.85 16.248-9.099 17.344-9.7666 31.5-19.181 11.808-7.8527 32.563-22.904 35.5-25.744 0.825-0.7978 3.525-2.9963 6-4.8857 4.0794-3.1142 15.329-13.161 28.033-25.036 55.178-51.577 100.11-129.72 123.33-214.5 10.846-39.595 15.056-59.466 22.669-107 0.5286-3.3 1.6458-10.275 2.4827-15.5 3.8431-23.993 9.4997-64.578 10.453-75 0.5787-6.325 1.5763-15.325 2.2169-20 4.6469-33.914-0.053-98.184-10.019-137-30.8-119.77-104.3-227.79-199.7-293.47-21.07-14.51-44.34-29.45-45.85-29.45-0.21654 0-4.6726-2.4232-9.9024-5.385-12.2-6.91-42.27-21.17-58.01-27.512-15.87-6.393-31.35-12.108-32.8-12.108-0.62 0-2.56-0.673-4.29-1.495-9.92-4.703-67.91-19.123-90.65-22.54-109.98-16.526-239.75-11.641-322.5 12.14-42.45 12.2-94.49 33.31-117.35 47.605-1.2931 0.80844-4.8931 2.855-8 4.5479-74.299 40.483-152.48 113.17-199.26 185.24-8.5415 13.162-10.352 16.001-11.477 18-0.619 1.1-3.9624 6.95-7.4299 13-35.51 61.958-58.1 130.67-65.914 200.5-6.9149 61.79-3.9773 144.66 7.3908 208.5 1.5399 8.6473 7.4005 35.387 9.704 44.276 0.60944 2.3517 1.4964 4.5157 1.9709 4.809 0.482 0.29 0.87 1.84 0.87 3.45 0 1.606 0.95833 5.9669 2.1296 9.691 5.7317 18.224 12.584 38.058 15.813 45.771 1.7461 4.1711 7.2833 17.2 9.3495 22 28.011 65.065 81.768 134.38 135.29 174.43 3.2574 2.4379 8.3976 6.3018 11.423 8.5863 30.019 22.671 83.593 51.864 127 69.204 28.677 11.456 66.735 21.772 104.5 28.328 3.3 0.5728 8.25 1.4658 11 1.9844 10.45 1.9708 24.279 4.1624 31.5 4.992 37.688 4.3298 67.122 6.8444 85.5 7.3045 27.234 0.6818 49.152 0.5708 70.5-0.3568zm-88-74.516c-121.25-8.3314-208.43-35.962-285-90.33-10.979-7.7953-11.726-8.3844-29.5-23.265-63.3-52.93-112.63-131.2-134.59-213.49-23.47-87.92-21.97-204.63 3.8-296.81 27.95-99.97 89.74-187.45 177.29-250.97 5.225-3.7912 11.75-8.5497 14.5-10.575 5.1292-3.7766 12.574-8.6298 27.5-17.928 4.675-2.9122 9.7193-6.1353 11.21-7.1623 1.4902-1.027 2.9604-1.8674 3.267-1.8674 0.30663 0 3.8124-1.9699 7.7905-4.3776 6.9015-4.177 38.932-20.622 40.166-20.622 0.32401 0 2.4967-0.88277 4.8282-1.9617 32.762-15.161 85.241-27.249 144.24-33.222 17.416-1.7634 93.663-1.742 113.5 0.0318 38.772 3.4669 63.442 6.8251 96.5 13.135 34.915 6.665 81.941 20.095 114.5 32.699 67.234 26.028 111.42 55.439 149.81 99.716 4.7801 5.5132 9.3765 10.727 10.214 11.586 6.8771 7.0504 30.621 41.91 38.494 56.515 2.0754 3.85 4.1106 7.45 4.5226 8 2.8321 3.7807 18.179 36.038 23.074 48.5 1.6204 4.125 3.359 8.4 3.8634 9.5 1.1662 2.5429 5.1581 13.221 7.851 21 4.1068 11.864 12.214 40.481 14.092 49.737 8.8944 43.86 11.11 58.386 13.155 86.263 1.4146 19.28 1.4291 61.414 0.027 77.5-2.7519 31.564-5.1959 50.348-8.5875 66-0.8939 4.125-2.5567 11.775-3.6951 17-15.477 71.032-55.321 152.69-100.28 205.5-3.2772 3.85-6.6522 7.8492-7.5 8.887-12.934 15.833-33.9 35.613-63.542 59.949-20.66 16.962-66.734 44.123-93.5 55.119-3.575 1.4687-7.85 3.2744-9.5 4.0127-30.881 13.817-82.258 28.349-122 34.507-23.519 3.6443-25.865 3.9622-40.5 5.489-36.8 3.8389-87.49 4.6418-126 1.9957zm88.226-31.932c23.483-1.4572 40.316-3.1038 56.774-5.5537 16.074-2.3928 18.745-2.8451 26-4.4042 4.125-0.8864 11.775-2.5271 17-3.6461 37.674-8.0681 76.093-21.482 110.11-38.444 9.7406-4.8574 19.156-10.152 37.683-21.191 13.634-8.1231 39.938-28.043 53.211-40.296 15.236-14.065 17.572-16.356 27.623-27.094 14.575-15.569 26.08-30.08 41.546-52.398 10.612-15.314 33.178-56.561 40.211-73.5 9.7825-23.56 17.623-46.036 23.548-67.5 3.0462-11.036 8.4595-37.2 11.483-55.5 10.298-62.324 5.0309-147.33-13.073-211-1.3293-4.675-3.1-10.975-3.9348-14-5.6487-20.467-20.011-55.871-31.789-78.36-11.7-22.29-13.8-25.88-30-49.61-16.6-24.33-44.04-53.33-69.21-73.13-6.11-4.8-28.81-19.87-29.94-19.87-0.35365 0-1.9158-0.90632-3.4715-2.014-21.1-15.03-89.33-40.58-142.48-53.37-113.82-27.37-250.02-25.3-331.97 5.05-3.8661 1.4317-8.8293 3.2514-11.029 4.0436-2.2 0.79225-5.35 2.0234-7 2.7358-1.65 0.71247-5.925 2.5472-9.5 4.0773-7.1378 3.0548-24.098 11.792-33.5 17.259-3.3 1.9186-7.35 4.2674-9 5.2196-109.4 63.13-184.15 154.77-216.56 265.49-5.3288 18.203-12.833 54.702-15.008 73-3.9366 33.112-4.2422 38.599-4.2319 76 0.0134 48.668 1.7068 70.283 8.3046 106 11.697 63.325 44.674 131.98 87.367 181.89 21.04 24.597 59.733 59.42 79.014 71.11 1.8142 1.1 5.2832 3.3139 7.7089 4.9197 27.287 18.064 59.199 33.534 93.051 45.107 63.426 21.684 164.01 33.783 241.09 29zm-298.34-159.12c-0.8881-1.0326-1.9218-3.6774-2.297-5.8774-0.37526-2.2-1.3464-7.825-2.1581-12.5-4.377-25.21-11.373-85.146-16.4-140.5-1.1488-12.65-2.7593-29.975-3.579-38.5s-2.1546-23.375-2.9663-33c-0.81179-9.625-1.9409-22.675-2.5092-29-0.56825-6.325-1.4508-16.45-1.9613-22.5-0.94883-11.246-4.22-46.073-6.0091-63.976-1.4892-14.903-3.46-13.658 35.494-22.416 16.487-3.7066 35.924-8.1206 42.5-9.6514 3.575-0.83224 13.925-3.125 23-5.095s18.075-3.9369 20-4.3709c1.925-0.43399 5.75-1.2796 8.5-1.8792 2.75-0.59956 8.825-2.0127 13.5-3.1403 12.8-3.0872 15.422-3.373 16.71-1.8211 0.98922 1.1919 8.1408 44.121 11.803 70.85 0.71586 5.225 2.2485 14.97 3.4059 21.656 1.1574 6.6859 2.7514 16.586 3.5423 22 0.79088 5.4141 2.0954 13.669 2.8991 18.344 0.8036 4.675 2.4207 15.025 3.5935 23s3.0342 20.125 4.1365 27 2.6463 16.55 3.4313 21.5c1.6792 10.589 8.6461 56.965 11.567 77 1.1228 7.7 2.6548 17.825 3.4046 22.5 0.74976 4.675 1.6443 11.2 1.9878 14.5 0.34355 3.3 1.2504 10.725 2.0153 16.5 3.879 29.287 6.2492 26.279-27.996 35.537-5.5 1.4869-12.925 3.5341-16.5 4.5493-8.3715 2.3773-35.163 8.8281-41 9.872-2.475 0.44262-10.35 1.9417-17.5 3.3313-36.577 7.1089-67.448 9.7704-70.615 6.0881zm57.11-32.3c6.325-1.6262 13.975-3.6387 17-4.4724 3.025-0.83364 6.625-1.8056 8-2.1598 1.375-0.35425 6.55-1.9123 11.5-3.4623 10.981-3.4385 32.838-9.5946 37.166-10.468 4.3879-0.88563 4.3836-0.84134 2.2608-23.119-2.1513-22.577-2.4842-25.607-7.3484-66.898-1.9438-16.5-4.4594-37.875-5.5902-47.5-1.1309-9.625-2.4754-20.425-2.9879-24-0.51248-3.575-1.375-10.325-1.9166-15-1.6157-13.945-5.9882-48.981-7.0512-56.5-0.54434-3.85-2.6324-19.15-4.64-34-4.3146-31.913-2.7875-29.302-15.585-26.644-5.6691 1.1773-19.533 3.6889-30.808 5.5812-27.009 4.5331-41.28 7.2226-48 9.0466-3.025 0.82102-6.4859 1.4981-7.691 1.5046-3.9214 0.0212-3.9138 1.4584 0.19659 37.012 0.79482 6.875 3.2672 29.375 5.4942 50 5.0922 47.161 7.6985 70.43 8.9606 80 0.54398 4.125 1.2073 9.75 1.4739 12.5 1.6565 17.081 11.425 89.107 14.173 104.5 0.83454 4.675 1.7527 10.075 2.0404 12 0.94815 6.3442 0.92641 6.3257 6.6231 5.6534 2.8762-0.33941 10.404-1.9476 16.729-3.5738zm167.74-5.8332c-5.18-1.17-20.05-47.73-32.34-101.25-2.6491-11.537-3.2884-14.41-4.3396-19.5-0.56797-2.75-2.1403-10.175-3.4941-16.5-2.4879-11.624-3.5637-17.186-5.6092-29-0.61894-3.575-1.5165-8.525-1.9947-11-0.78889-4.0837-3.5747-21.1-5.9755-36.5-2.9346-18.823-6.8332-52.977-9.0209-79.027-2.193-26.113-0.98676-79.713 1.8604-82.667 0.36785-0.38168 3.8188-1.1772 7.6688-1.7678 11.772-1.8058 12.64-2.1261 17.232-6.3589 8.6705-7.9922 13.031-21.258 22.739-69.179 23.74-117.13 50.39-155.52 101.04-145.56 39.894 7.8505 46.117 28.057 30.509 99.065-16.5 75.067-10.938 91.46 30.991 91.329 16.329-0.0511 15.47 0.0725 58-8.3505 76.69-15.18 118.28-10.07 130.42 16.03 7.4996 16.12-5.1615 43.299-26.672 57.255-5.7697 3.7434-5.9721 5.3389-0.85219 6.7175 35.503 9.5601 47.818 43.722 29.494 81.819l-3.5728 7.4281 3.707 5.3823c16.886 24.517 13.013 69.085-7.53 86.669-5.1867 4.4397-5.0784 4.9285 1.754 7.912 35.309 15.418 40.637 54.247 10.916 79.554-17.434 14.845-72.725 31.12-153.67 45.233-18.89 3.2936-37.18 6.3474-42.5 7.0959-3.3 0.46432-8.925 1.2947-12.5 1.8454-55.591 8.5623-126.62 15.513-136.26 13.335zm33.682-31.184c3.345-0.51556 9.4569-1.4014 13.582-1.9684 7.8025-1.0727 8.8439-1.2102 46.5-6.142 37.107-4.8599 34.505-4.4895 84.5-12.024 91.986-13.863 149.25-32.962 153.87-51.322 4.4591-17.709-7.8983-26.113-38.369-26.094-18.748 0.0114-20.741 0.22817-60 6.5271-62.103 9.9641-83.675 8.1986-50.921-4.1674 10.061-3.7985 18.974-6.1834 66.921-17.907 52.891-12.932 72.401-25.093 72.478-45.176 0.10569-27.492-29.205-37.522-84.478-28.909-55.299 8.6174-53.47 8.4003-71.709 8.5124-40.46 0.25-16.41-13.88 48.21-28.33 77.98-17.43 99.39-25.93 107.1-42.56 14.66-31.6-23.17-40.14-130.1-29.35-39.327 3.9668-57.258 5.3488-59.288 4.5695-8.47-3.25 18.96-12.79 71.29-24.78 79.79-18.29 107.65-32.3 107.36-53.98-0.32-23.92-19.38-25.29-103.86-7.44-69.53 14.68-92.23 15.72-108.58 4.95-20.53-13.52-22.78-39.26-9.11-104.47 10.101-48.17 10.001-65.708-0.42079-73.905-20.771-16.338-48.264 21.469-62.834 86.405-4.3152 19.233-5.3397 24.188-8.0638 39-6.8939 37.485-7.5431 40.588-11.718 56-4.769 17.604-19.058 28.5-37.376 28.5-3.925 0-4.4016 1.7808-4.4032 16.45-0.003 24.631 6.4212 77.306 14.335 117.55 1.352 6.875 3.4251 17.675 4.6069 24s2.3557 12.4 2.6086 13.5c0.25296 1.1 2.2726 10.55 4.488 21s4.4545 20.8 4.9756 23c0.52119 2.2 2.5596 10.975 4.5297 19.5 4.5986 19.899 12.342 51.91 17.719 73.25l4.2205 16.75h2.927c1.6098 0 5.6638-0.42182 9.0089-0.93739z"/>
</svg>
